<?xml version="1.0" encoding="UTF-8" standalone="no"?>
<!DOCTYPE svg PUBLIC "-//W3C//DTD SVG 1.1//EN"
 "http://www.w3.org/Graphics/SVG/1.1/DTD/svg11.dtd">
<!-- Generated by graphviz version 12.2.1 (0)
 -->
<!-- Title: assert_ast Pages: 1 -->
<svg width="588pt" height="763pt"
 viewBox="0.00 0.00 587.75 763.00" xmlns="http://www.w3.org/2000/svg" xmlns:xlink="http://www.w3.org/1999/xlink">
<g id="graph0" class="graph" transform="scale(1 1) rotate(0) translate(4 759)">
<title>assert_ast</title>
<polygon fill="white" stroke="none" points="-4,4 -4,-759 583.75,-759 583.75,4 -4,4"/>
<!-- 1 -->
<g id="node1" class="node">
<title>1</title>
<polygon fill="none" stroke="black" points="207.38,-705.5 207.38,-754.5 312.62,-754.5 312.62,-705.5 207.38,-705.5"/>
<text text-anchor="start" x="237.5" y="-738.2" font-family="Times,serif" font-weight="bold" font-size="14.00">Module</text>
<polyline fill="none" stroke="black" points="207.38,-730 312.62,-730"/>
<text text-anchor="start" x="215.38" y="-712.7" font-family="Times,serif" font-size="14.00">body : list[AST]</text>
</g>
<!-- 2 -->
<g id="node2" class="node">
<title>2</title>
<polygon fill="none" stroke="black" points="183.75,-529 183.75,-668.5 336.25,-668.5 336.25,-529 183.75,-529"/>
<text text-anchor="start" x="224" y="-652.2" font-family="Times,serif" font-weight="bold" font-size="14.00">FunctionDef</text>
<polyline fill="none" stroke="black" points="183.75,-644 336.25,-644"/>
<text text-anchor="start" x="223.62" y="-626.7" font-family="Times,serif" font-size="14.00">duplicate_list</text>
<polyline fill="none" stroke="black" points="183.75,-619.5 336.25,-619.5"/>
<text text-anchor="start" x="191.75" y="-602.2" font-family="Times,serif" font-size="14.00">name : str</text>
<text text-anchor="start" x="191.75" y="-585.7" font-family="Times,serif" font-size="14.00">args : arguments</text>
<text text-anchor="start" x="191.75" y="-569.2" font-family="Times,serif" font-size="14.00">body : list[AST]</text>
<text text-anchor="start" x="191.75" y="-552.7" font-family="Times,serif" font-size="14.00">decorator_list : list[AST]</text>
<text text-anchor="start" x="191.75" y="-536.2" font-family="Times,serif" font-size="14.00">returns : NoneType</text>
</g>
<!-- 1&#45;&gt;2 -->
<g id="edge1" class="edge">
<title>1&#45;&gt;2</title>
<path fill="none" stroke="black" d="M260,-705.29C260,-697.88 260,-689.26 260,-680.19"/>
<polygon fill="black" stroke="black" points="263.5,-680.47 260,-670.47 256.5,-680.47 263.5,-680.47"/>
</g>
<!-- 3 -->
<g id="node3" class="node">
<title>3</title>
<polygon fill="none" stroke="black" points="34,-344 34,-492 170,-492 170,-344 34,-344"/>
<text text-anchor="start" x="70.88" y="-475.7" font-family="Times,serif" font-weight="bold" font-size="14.00">arguments</text>
<polyline fill="none" stroke="black" points="34,-467.5 170,-467.5"/>
<text text-anchor="start" x="42" y="-450.2" font-family="Times,serif" font-size="14.00">posonlyargs : list[arg]</text>
<text text-anchor="start" x="42" y="-433.7" font-family="Times,serif" font-size="14.00">args : list[arg]</text>
<text text-anchor="start" x="42" y="-417.2" font-family="Times,serif" font-size="14.00">vararg : NoneType</text>
<text text-anchor="start" x="42" y="-400.7" font-family="Times,serif" font-size="14.00">kwonlyargs : list[arg]</text>
<text text-anchor="start" x="42" y="-384.2" font-family="Times,serif" font-size="14.00">kw_defaults : list[arg]</text>
<text text-anchor="start" x="42" y="-367.7" font-family="Times,serif" font-size="14.00">kwarg : NoneType</text>
<text text-anchor="start" x="42" y="-351.2" font-family="Times,serif" font-size="14.00">defaults : list[arg]</text>
</g>
<!-- 2&#45;&gt;3 -->
<g id="edge2" class="edge">
<title>2&#45;&gt;3</title>
<path fill="none" stroke="black" d="M198.91,-528.64C190.87,-519.54 182.56,-510.14 174.35,-500.85"/>
<polygon fill="black" stroke="black" points="177.1,-498.68 167.85,-493.5 171.85,-503.31 177.1,-498.68"/>
</g>
<!-- 5 -->
<g id="node5" class="node">
<title>5</title>
<polygon fill="none" stroke="black" points="206.25,-385.25 206.25,-450.75 313.75,-450.75 313.75,-385.25 206.25,-385.25"/>
<text text-anchor="start" x="241.62" y="-434.45" font-family="Times,serif" font-weight="bold" font-size="14.00">Assert</text>
<polyline fill="none" stroke="black" points="206.25,-426.25 313.75,-426.25"/>
<text text-anchor="start" x="214.25" y="-408.95" font-family="Times,serif" font-size="14.00">test : Call</text>
<text text-anchor="start" x="214.25" y="-392.45" font-family="Times,serif" font-size="14.00">msg : NoneType</text>
</g>
<!-- 2&#45;&gt;5 -->
<g id="edge4" class="edge">
<title>2&#45;&gt;5</title>
<path fill="none" stroke="black" d="M260,-528.64C260,-506.41 260,-482.41 260,-462.55"/>
<polygon fill="black" stroke="black" points="263.5,-462.59 260,-452.59 256.5,-462.59 263.5,-462.59"/>
</g>
<!-- 13 -->
<g id="node13" class="node">
<title>13</title>
<polygon fill="none" stroke="black" points="343.38,-393.5 343.38,-442.5 424.62,-442.5 424.62,-393.5 343.38,-393.5"/>
<text text-anchor="start" x="363.38" y="-426.2" font-family="Times,serif" font-weight="bold" font-size="14.00">Return</text>
<polyline fill="none" stroke="black" points="343.38,-418 424.62,-418"/>
<text text-anchor="start" x="351.38" y="-400.7" font-family="Times,serif" font-size="14.00">value : AST</text>
</g>
<!-- 2&#45;&gt;13 -->
<g id="edge12" class="edge">
<title>2&#45;&gt;13</title>
<path fill="none" stroke="black" d="M307.94,-528.64C326.14,-502.4 346.05,-473.7 360.94,-452.25"/>
<polygon fill="black" stroke="black" points="363.71,-454.39 366.53,-444.18 357.96,-450.4 363.71,-454.39"/>
</g>
<!-- 4 -->
<g id="node4" class="node">
<title>4</title>
<polygon fill="none" stroke="black" points="0,-200.5 0,-307 166,-307 166,-200.5 0,-200.5"/>
<text text-anchor="start" x="73.25" y="-290.7" font-family="Times,serif" font-weight="bold" font-size="14.00">arg</text>
<polyline fill="none" stroke="black" points="0,-282.5 166,-282.5"/>
<text text-anchor="start" x="79.62" y="-265.2" font-family="Times,serif" font-size="14.00">x</text>
<polyline fill="none" stroke="black" points="0,-258 166,-258"/>
<text text-anchor="start" x="8" y="-240.7" font-family="Times,serif" font-size="14.00">arg : str</text>
<text text-anchor="start" x="8" y="-224.2" font-family="Times,serif" font-size="14.00">annotation : NoneType</text>
<text text-anchor="start" x="8" y="-207.7" font-family="Times,serif" font-size="14.00">type_comment : NoneType</text>
</g>
<!-- 3&#45;&gt;4 -->
<g id="edge3" class="edge">
<title>3&#45;&gt;4</title>
<path fill="none" stroke="black" d="M93.44,-343.94C92.47,-335.6 91.48,-327.14 90.51,-318.92"/>
<polygon fill="black" stroke="black" points="93.99,-318.52 89.35,-309 87.04,-319.34 93.99,-318.52"/>
</g>
<!-- 6 -->
<g id="node6" class="node">
<title>6</title>
<polygon fill="none" stroke="black" points="183.75,-212.75 183.75,-294.75 336.25,-294.75 336.25,-212.75 183.75,-212.75"/>
<text text-anchor="start" x="248" y="-278.45" font-family="Times,serif" font-weight="bold" font-size="14.00">Call</text>
<polyline fill="none" stroke="black" points="183.75,-270.25 336.25,-270.25"/>
<text text-anchor="start" x="191.75" y="-252.95" font-family="Times,serif" font-size="14.00">func : Name</text>
<text text-anchor="start" x="191.75" y="-236.45" font-family="Times,serif" font-size="14.00">args : list[Name|Starred]</text>
<text text-anchor="start" x="191.75" y="-219.95" font-family="Times,serif" font-size="14.00">keywords : list[keyword]</text>
</g>
<!-- 5&#45;&gt;6 -->
<g id="edge5" class="edge">
<title>5&#45;&gt;6</title>
<path fill="none" stroke="black" d="M260,-384.94C260,-362.6 260,-332.3 260,-306.55"/>
<polygon fill="black" stroke="black" points="263.5,-306.6 260,-296.6 256.5,-306.6 263.5,-306.6"/>
</g>
<!-- 7 -->
<g id="node7" class="node">
<title>7</title>
<polygon fill="none" stroke="black" points="76.25,-73.5 76.25,-163.5 147.75,-163.5 147.75,-73.5 76.25,-73.5"/>
<text text-anchor="start" x="94.75" y="-147.2" font-family="Times,serif" font-weight="bold" font-size="14.00">Name</text>
<polyline fill="none" stroke="black" points="76.25,-139 147.75,-139"/>
<text text-anchor="start" x="85.38" y="-121.7" font-family="Times,serif" font-size="14.00">isinstance</text>
<polyline fill="none" stroke="black" points="76.25,-114.5 147.75,-114.5"/>
<text text-anchor="start" x="84.25" y="-97.2" font-family="Times,serif" font-size="14.00">id : str</text>
<text text-anchor="start" x="84.25" y="-80.7" font-family="Times,serif" font-size="14.00">ctx : Load</text>
</g>
<!-- 6&#45;&gt;7 -->
<g id="edge6" class="edge">
<title>6&#45;&gt;7</title>
<path fill="none" stroke="black" d="M211.71,-212.33C194.24,-197.4 174.52,-180.17 157,-164 156.82,-163.83 156.64,-163.66 156.45,-163.5"/>
<polygon fill="black" stroke="black" points="158.92,-161.01 149.24,-156.7 154.12,-166.11 158.92,-161.01"/>
</g>
<!-- 9 -->
<g id="node9" class="node">
<title>9</title>
<polygon fill="none" stroke="black" points="166.25,-73.5 166.25,-163.5 237.75,-163.5 237.75,-73.5 166.25,-73.5"/>
<text text-anchor="start" x="184.75" y="-147.2" font-family="Times,serif" font-weight="bold" font-size="14.00">Name</text>
<polyline fill="none" stroke="black" points="166.25,-139 237.75,-139"/>
<text text-anchor="start" x="198.62" y="-121.7" font-family="Times,serif" font-size="14.00">x</text>
<polyline fill="none" stroke="black" points="166.25,-114.5 237.75,-114.5"/>
<text text-anchor="start" x="174.25" y="-97.2" font-family="Times,serif" font-size="14.00">id : str</text>
<text text-anchor="start" x="174.25" y="-80.7" font-family="Times,serif" font-size="14.00">ctx : Load</text>
</g>
<!-- 6&#45;&gt;9 -->
<g id="edge8" class="edge">
<title>6&#45;&gt;9</title>
<path fill="none" stroke="black" d="M242.44,-212.41C237.23,-200.44 231.43,-187.12 225.9,-174.4"/>
<polygon fill="black" stroke="black" points="229.13,-173.05 221.92,-165.28 222.71,-175.84 229.13,-173.05"/>
</g>
<!-- 11 -->
<g id="node11" class="node">
<title>11</title>
<polygon fill="none" stroke="black" points="256.25,-73.5 256.25,-163.5 327.75,-163.5 327.75,-73.5 256.25,-73.5"/>
<text text-anchor="start" x="274.75" y="-147.2" font-family="Times,serif" font-weight="bold" font-size="14.00">Name</text>
<polyline fill="none" stroke="black" points="256.25,-139 327.75,-139"/>
<text text-anchor="start" x="283.75" y="-121.7" font-family="Times,serif" font-size="14.00">list</text>
<polyline fill="none" stroke="black" points="256.25,-114.5 327.75,-114.5"/>
<text text-anchor="start" x="264.25" y="-97.2" font-family="Times,serif" font-size="14.00">id : str</text>
<text text-anchor="start" x="264.25" y="-80.7" font-family="Times,serif" font-size="14.00">ctx : Load</text>
</g>
<!-- 6&#45;&gt;11 -->
<g id="edge10" class="edge">
<title>6&#45;&gt;11</title>
<path fill="none" stroke="black" d="M269.69,-212.41C272.53,-200.56 275.7,-187.39 278.72,-174.78"/>
<polygon fill="black" stroke="black" points="282.05,-175.9 280.99,-165.36 275.25,-174.27 282.05,-175.9"/>
</g>
<!-- 8 -->
<g id="node8" class="node">
<title>8</title>
<polygon fill="none" stroke="black" points="85,-0.5 85,-36.5 139,-36.5 139,-0.5 85,-0.5"/>
<text text-anchor="start" x="97" y="-14.45" font-family="Times,serif" font-weight="bold" font-size="14.00">Load</text>
</g>
<!-- 7&#45;&gt;8 -->
<g id="edge7" class="edge">
<title>7&#45;&gt;8</title>
<path fill="none" stroke="black" d="M112,-73.09C112,-64.58 112,-55.89 112,-48.04"/>
<polygon fill="black" stroke="black" points="115.5,-48.08 112,-38.08 108.5,-48.08 115.5,-48.08"/>
</g>
<!-- 10 -->
<g id="node10" class="node">
<title>10</title>
<polygon fill="none" stroke="black" points="175,-0.5 175,-36.5 229,-36.5 229,-0.5 175,-0.5"/>
<text text-anchor="start" x="187" y="-14.45" font-family="Times,serif" font-weight="bold" font-size="14.00">Load</text>
</g>
<!-- 9&#45;&gt;10 -->
<g id="edge9" class="edge">
<title>9&#45;&gt;10</title>
<path fill="none" stroke="black" d="M202,-73.09C202,-64.58 202,-55.89 202,-48.04"/>
<polygon fill="black" stroke="black" points="205.5,-48.08 202,-38.08 198.5,-48.08 205.5,-48.08"/>
</g>
<!-- 12 -->
<g id="node12" class="node">
<title>12</title>
<polygon fill="none" stroke="black" points="265,-0.5 265,-36.5 319,-36.5 319,-0.5 265,-0.5"/>
<text text-anchor="start" x="277" y="-14.45" font-family="Times,serif" font-weight="bold" font-size="14.00">Load</text>
</g>
<!-- 11&#45;&gt;12 -->
<g id="edge11" class="edge">
<title>11&#45;&gt;12</title>
<path fill="none" stroke="black" d="M292,-73.09C292,-64.58 292,-55.89 292,-48.04"/>
<polygon fill="black" stroke="black" points="295.5,-48.08 292,-38.08 288.5,-48.08 295.5,-48.08"/>
</g>
<!-- 14 -->
<g id="node14" class="node">
<title>14</title>
<polygon fill="none" stroke="black" points="371.12,-212.75 371.12,-294.75 456.88,-294.75 456.88,-212.75 371.12,-212.75"/>
<text text-anchor="start" x="394.5" y="-278.45" font-family="Times,serif" font-weight="bold" font-size="14.00">BinOp</text>
<polyline fill="none" stroke="black" points="371.12,-270.25 456.88,-270.25"/>
<text text-anchor="start" x="379.12" y="-252.95" font-family="Times,serif" font-size="14.00">left : Name</text>
<text text-anchor="start" x="379.12" y="-236.45" font-family="Times,serif" font-size="14.00">op : Add</text>
<text text-anchor="start" x="379.12" y="-219.95" font-family="Times,serif" font-size="14.00">right : Name</text>
</g>
<!-- 13&#45;&gt;14 -->
<g id="edge13" class="edge">
<title>13&#45;&gt;14</title>
<path fill="none" stroke="black" d="M388.43,-393.06C392.63,-370.34 399.08,-335.43 404.45,-306.38"/>
<polygon fill="black" stroke="black" points="407.88,-307.11 406.25,-296.64 400.99,-305.84 407.88,-307.11"/>
</g>
<!-- 15 -->
<g id="node15" class="node">
<title>15</title>
<polygon fill="none" stroke="black" points="346.25,-73.5 346.25,-163.5 417.75,-163.5 417.75,-73.5 346.25,-73.5"/>
<text text-anchor="start" x="364.75" y="-147.2" font-family="Times,serif" font-weight="bold" font-size="14.00">Name</text>
<polyline fill="none" stroke="black" points="346.25,-139 417.75,-139"/>
<text text-anchor="start" x="378.62" y="-121.7" font-family="Times,serif" font-size="14.00">x</text>
<polyline fill="none" stroke="black" points="346.25,-114.5 417.75,-114.5"/>
<text text-anchor="start" x="354.25" y="-97.2" font-family="Times,serif" font-size="14.00">id : str</text>
<text text-anchor="start" x="354.25" y="-80.7" font-family="Times,serif" font-size="14.00">ctx : Load</text>
</g>
<!-- 14&#45;&gt;15 -->
<g id="edge14" class="edge">
<title>14&#45;&gt;15</title>
<path fill="none" stroke="black" d="M404.31,-212.41C401.47,-200.56 398.3,-187.39 395.28,-174.78"/>
<polygon fill="black" stroke="black" points="398.75,-174.27 393.01,-165.36 391.95,-175.9 398.75,-174.27"/>
</g>
<!-- 17 -->
<g id="node17" class="node">
<title>17</title>
<polygon fill="none" stroke="black" points="436,-100.5 436,-136.5 490,-136.5 490,-100.5 436,-100.5"/>
<text text-anchor="start" x="450.5" y="-114.45" font-family="Times,serif" font-weight="bold" font-size="14.00">Add</text>
</g>
<!-- 14&#45;&gt;17 -->
<g id="edge16" class="edge">
<title>14&#45;&gt;17</title>
<path fill="none" stroke="black" d="M428.83,-212.41C436.57,-191.38 445.83,-166.18 452.76,-147.34"/>
<polygon fill="black" stroke="black" points="455.95,-148.81 456.12,-138.21 449.38,-146.39 455.95,-148.81"/>
</g>
<!-- 18 -->
<g id="node18" class="node">
<title>18</title>
<polygon fill="none" stroke="black" points="508.25,-73.5 508.25,-163.5 579.75,-163.5 579.75,-73.5 508.25,-73.5"/>
<text text-anchor="start" x="526.75" y="-147.2" font-family="Times,serif" font-weight="bold" font-size="14.00">Name</text>
<polyline fill="none" stroke="black" points="508.25,-139 579.75,-139"/>
<text text-anchor="start" x="540.62" y="-121.7" font-family="Times,serif" font-size="14.00">x</text>
<polyline fill="none" stroke="black" points="508.25,-114.5 579.75,-114.5"/>
<text text-anchor="start" x="516.25" y="-97.2" font-family="Times,serif" font-size="14.00">id : str</text>
<text text-anchor="start" x="516.25" y="-80.7" font-family="Times,serif" font-size="14.00">ctx : Load</text>
</g>
<!-- 14&#45;&gt;18 -->
<g id="edge17" class="edge">
<title>14&#45;&gt;18</title>
<path fill="none" stroke="black" d="M453.36,-212.41C468.12,-197.28 484.99,-179.99 500.14,-164.46"/>
<polygon fill="black" stroke="black" points="502.34,-167.21 506.82,-157.61 497.33,-162.32 502.34,-167.21"/>
</g>
<!-- 16 -->
<g id="node16" class="node">
<title>16</title>
<polygon fill="none" stroke="black" points="355,-0.5 355,-36.5 409,-36.5 409,-0.5 355,-0.5"/>
<text text-anchor="start" x="367" y="-14.45" font-family="Times,serif" font-weight="bold" font-size="14.00">Load</text>
</g>
<!-- 15&#45;&gt;16 -->
<g id="edge15" class="edge">
<title>15&#45;&gt;16</title>
<path fill="none" stroke="black" d="M382,-73.09C382,-64.58 382,-55.89 382,-48.04"/>
<polygon fill="black" stroke="black" points="385.5,-48.08 382,-38.08 378.5,-48.08 385.5,-48.08"/>
</g>
<!-- 19 -->
<g id="node19" class="node">
<title>19</title>
<polygon fill="none" stroke="black" points="517,-0.5 517,-36.5 571,-36.5 571,-0.5 517,-0.5"/>
<text text-anchor="start" x="529" y="-14.45" font-family="Times,serif" font-weight="bold" font-size="14.00">Load</text>
</g>
<!-- 18&#45;&gt;19 -->
<g id="edge18" class="edge">
<title>18&#45;&gt;19</title>
<path fill="none" stroke="black" d="M544,-73.09C544,-64.58 544,-55.89 544,-48.04"/>
<polygon fill="black" stroke="black" points="547.5,-48.08 544,-38.08 540.5,-48.08 547.5,-48.08"/>
</g>
</g>
</svg>
